name rise49.8558peak67.6521fall70.3087.mot
datacolumns 19
datarows 20
range 19.82825500000000 19.85992600000000
endheader
time	ground_force1_vx	ground_force1_vy	ground_force1_vz	ground_force1_px	ground_force1_py	ground_force1_pz	ground_force2_vx	ground_force2_vy	ground_force2_vz	ground_force2_px	ground_force2_py	ground_force2_pz	ground_torque1_x	ground_torque1_y	ground_torque1_z	ground_torque2_x	ground_torque2_y	ground_torque2_z	
19.82825500000000	-7.25707100000000	43.97048900000000	-7.66244500000000	0.37208700000000	0.00000000000000	0.12473000000000	-50.56531500000000	786.64067000000000	-62.94024400000000	0.16822400000000	0.00000000000000	-0.08226800000000	0.00000000000000	-5.67040900000000	0.00000000000000	0.00000000000000	-26.78476200000000	0.00000000000000	
19.82992700000000	-7.87988500000000	51.71670200000000	-8.51249900000000	0.37499200000000	0.00000000000000	0.12588900000000	-50.83931800000000	783.14340500000003	-62.58187600000000	0.16720600000000	0.00000000000000	-0.08220800000000	0.00000000000000	-6.36870000000000	0.00000000000000	0.00000000000000	-26.58511900000000	0.00000000000000	
19.83159100000000	-8.34298600000000	59.60939000000000	-9.24646500000000	0.37768800000000	0.00000000000000	0.12692600000000	-51.12077500000000	779.52940100000001	-62.19685800000000	0.16617700000000	0.00000000000000	-0.08214500000000	0.00000000000000	-6.99919200000000	0.00000000000000	0.00000000000000	-26.38150000000000	0.00000000000000	
19.83326100000000	-8.62598600000000	67.55133300000000	-9.84346100000000	0.38021300000000	0.00000000000000	0.12786100000000	-51.40980700000000	775.79950699999995	-61.78540000000000	0.16513700000000	0.00000000000000	-0.08208000000000	0.00000000000000	-7.54646100000000	0.00000000000000	0.00000000000000	-26.17413200000000	0.00000000000000	
19.83493800000000	-8.71712200000000	75.46805000000001	-10.29022100000000	0.38259600000000	0.00000000000000	0.12870900000000	-51.70647500000000	771.95448899999997	-61.34774100000000	0.16408500000000	0.00000000000000	-0.08201200000000	0.00000000000000	-8.00030000000000	0.00000000000000	0.00000000000000	-25.96324100000000	0.00000000000000	
19.83659200000000	-8.61307000000000	83.31025099999999	-10.58108200000000	0.38486000000000	0.00000000000000	0.12948300000000	-52.01077500000000	767.99501999999995	-60.88415900000000	0.16302400000000	0.00000000000000	-0.08194100000000	0.00000000000000	-8.35578900000000	0.00000000000000	0.00000000000000	-25.74905300000000	0.00000000000000	
19.83825700000000	-8.31810000000000	91.05380100000001	-10.71736300000000	0.38702300000000	0.00000000000000	0.13019400000000	-52.32263800000000	763.92168300000003	-60.39496100000000	0.16195400000000	0.00000000000000	-0.08186800000000	0.00000000000000	-8.61293800000000	0.00000000000000	0.00000000000000	-25.53179100000000	0.00000000000000	
19.83992400000000	-7.84275600000000	98.69760500000000	-10.70627600000000	0.38910000000000	0.00000000000000	0.13084800000000	-52.64192700000000	759.73496399999999	-59.88048800000000	0.16087500000000	0.00000000000000	-0.08179200000000	0.00000000000000	-8.77597300000000	0.00000000000000	0.00000000000000	-25.31167400000000	0.00000000000000	
19.84159300000000	-7.20225400000000	106.25996700000000	-10.55953900000000	0.39110400000000	0.00000000000000	0.13145300000000	-52.96843900000000	755.43525599999998	-59.34111400000000	0.15979000000000	0.00000000000000	-0.08171400000000	0.00000000000000	-8.85240100000000	0.00000000000000	0.00000000000000	-25.08891600000000	0.00000000000000	
19.84326100000000	-6.41477000000000	113.77396800000000	-10.29187000000000	0.39304300000000	0.00000000000000	0.13201500000000	-53.30189700000000	751.02285300000005	-58.77724300000000	0.15869900000000	0.00000000000000	-0.08163200000000	0.00000000000000	-8.85197700000000	0.00000000000000	0.00000000000000	-24.86372700000000	0.00000000000000	
19.84492100000000	-5.49979600000000	121.28243700000000	-9.91949000000000	0.39492600000000	0.00000000000000	0.13253900000000	-53.64195700000000	746.49795600000004	-58.18931100000000	0.15760300000000	0.00000000000000	-0.08154800000000	0.00000000000000	-8.78564400000000	0.00000000000000	0.00000000000000	-24.63631100000000	0.00000000000000	
19.84659000000000	-4.47666000000000	128.83297600000000	-9.45877200000000	0.39676000000000	0.00000000000000	0.13302800000000	-53.98820000000000	741.86067100000002	-57.57778600000000	0.15650400000000	0.00000000000000	-0.08146000000000	0.00000000000000	-8.66458000000000	0.00000000000000	0.00000000000000	-24.40686300000000	0.00000000000000	
19.84825600000000	-3.36332700000000	136.47344500000000	-8.92510200000000	0.39855000000000	0.00000000000000	0.13348600000000	-54.34013600000000	737.11101299999996	-56.94316300000000	0.15540300000000	0.00000000000000	-0.08137000000000	0.00000000000000	-8.49936800000000	0.00000000000000	0.00000000000000	-24.17557200000000	0.00000000000000	
19.84992100000000	-2.17550500000000	144.24816899999999	-8.33202200000000	0.40030000000000	0.00000000000000	0.13391600000000	-54.69720300000000	732.24890700000003	-56.28597000000000	0.15430000000000	0.00000000000000	-0.08127600000000	0.00000000000000	-8.29936300000000	0.00000000000000	0.00000000000000	-23.94261800000000	0.00000000000000	
19.85159600000000	-0.92608800000000	152.19503300000000	-7.69066000000000	0.40201500000000	0.00000000000000	0.13432000000000	-55.05876500000000	727.27419599999996	-55.60675900000000	0.15319900000000	0.00000000000000	-0.08117900000000	0.00000000000000	-8.07225800000000	0.00000000000000	0.00000000000000	-23.70817000000000	0.00000000000000	
19.85325600000000	0.37508900000000	160.34354300000001	-7.00944200000000	0.40369800000000	0.00000000000000	0.13470100000000	-55.42411200000000	722.18664200000001	-54.90611600000000	0.15209900000000	0.00000000000000	-0.08107900000000	0.00000000000000	-7.82385000000000	0.00000000000000	0.00000000000000	-23.47238800000000	0.00000000000000	
19.85492300000000	1.72122600000000	168.71380900000000	-6.29406700000000	0.40535100000000	0.00000000000000	0.13506100000000	-55.79246400000000	716.98593600000004	-54.18464900000000	0.15100300000000	0.00000000000000	-0.08097600000000	0.00000000000000	-7.55799000000000	0.00000000000000	0.00000000000000	-23.23542100000000	0.00000000000000	
19.85660700000000	3.10829500000000	177.31636800000001	-5.54768600000000	0.40697600000000	0.00000000000000	0.13540200000000	-56.16296800000000	711.67170199999998	-53.44299600000000	0.14991200000000	0.00000000000000	-0.08086900000000	0.00000000000000	-7.27668600000000	0.00000000000000	0.00000000000000	-22.99740500000000	0.00000000000000	
19.85826000000000	4.53462800000000	186.15271400000000	-4.77124200000000	0.40857400000000	0.00000000000000	0.13572400000000	-56.53470200000000	706.24350800000002	-52.68182000000000	0.14882700000000	0.00000000000000	-0.08075800000000	0.00000000000000	-6.98032500000000	0.00000000000000	0.00000000000000	-22.75846400000000	0.00000000000000	
19.85992600000000	6.00038900000000	195.21634299999999	-3.96392000000000	0.41014800000000	0.00000000000000	0.13602900000000	-56.90667200000000	700.70087100000001	-51.90181000000000	0.14775100000000	0.00000000000000	-0.08064400000000	0.00000000000000	-6.66797900000000	0.00000000000000	0.00000000000000	-22.51871000000000	0.00000000000000	
